<?xml version="1.0" standalone="no"?>
<!DOCTYPE svg PUBLIC "-//W3C//DTD SVG 20010904//EN"
 "http://www.w3.org/TR/2001/REC-SVG-20010904/DTD/svg10.dtd">
<svg version="1.0" xmlns="http://www.w3.org/2000/svg"
 width="3000.000000pt" height="2000.000000pt" viewBox="0 0 3000.000000 2000.000000"
 preserveAspectRatio="xMidYMid meet">

<g transform="translate(0.000000,2000.000000) scale(0.100000,-0.100000)"
fill="#000000" stroke="none">
<path d="M0 10000 l0 -10000 15000 0 15000 0 0 10000 0 10000 -15000 0 -15000
0 0 -10000z m15670 3490 c1219 -40 2560 -208 3658 -460 228 -53 609 -153 595
-157 -97 -30 -683 -185 -938 -248 -1042 -258 -1956 -424 -2640 -479 -206 -17
-633 -32 -625 -23 3 3 71 13 150 22 537 61 1241 255 1955 540 240 95 308 125
303 131 -8 7 -393 102 -618 153 -1456 325 -2575 353 -3845 95 -632 -129 -1613
-419 -2670 -789 -463 -163 -525 -186 -520 -195 13 -20 403 -104 815 -175 l245
-42 -545 -6 c-300 -3 -606 -10 -680 -16 -251 -19 -321 -22 -315 -11 3 6 -1 7
-9 4 -9 -3 -16 -10 -16 -15 0 -6 -18 -9 -39 -7 -22 1 -38 6 -35 10 3 5 10 6
15 3 7 -5 16 232 10 268 -1 5 4 5 11 0 20 -13 65 -11 65 3 0 7 -5 10 -11 6 -6
-3 -20 -8 -31 -9 -20 -3 -20 -3 -1 12 11 8 27 15 36 15 9 0 21 5 28 12 7 7 12
8 12 4 0 -5 6 -4 13 2 13 10 913 380 1262 518 973 384 1736 611 2460 733 551
93 1161 125 1905 101z m5033 -797 c20 -3 37 -10 37 -15 0 -5 5 -6 12 -2 7 4 8
3 4 -4 -4 -7 -14 -12 -22 -12 -8 0 -14 -5 -14 -11 0 -5 3 -8 8 -6 4 3 7 -71 7
-164 0 -93 -4 -169 -8 -169 -4 0 -7 -6 -6 -12 4 -27 -12 -45 -41 -43 -16 1
-27 -1 -25 -5 2 -3 -74 -11 -168 -18 -389 -27 -948 -89 -1852 -208 -1455 -191
-2081 -264 -2843 -329 -386 -33 -443 -30 -117 6 1548 170 2816 377 3770 615
445 111 860 247 1095 358 49 24 84 34 100 31 14 -3 42 -8 63 -12z m121 -42
c-8 -8 -43 -8 -38 0 2 4 13 7 24 6 10 -1 17 -3 14 -6z m320 -47 c3 -8 2 -12
-4 -9 -6 3 -10 10 -10 16 0 14 7 11 14 -7z m-28 -19 c1 -8 -2 -15 -6 -15 -5 0
-8 9 -7 20 1 21 10 18 13 -5z m187 8 c40 -2 73 -9 75 -13 2 -5 9 -7 16 -4 7 3
102 -4 212 -15 203 -21 474 -42 779 -61 274 -18 1162 -24 1376 -11 200 13 371
33 461 55 l57 13 -19 -28 c-63 -87 -259 -182 -504 -243 l-129 -32 52 -58 c214
-237 402 -583 480 -889 51 -196 64 -318 57 -527 -3 -102 -8 -200 -12 -219 -6
-33 -8 -30 -44 65 -278 738 -742 1208 -1424 1443 -340 118 -686 173 -1196 192
-316 12 -354 15 -344 31 4 5 0 14 -7 19 -10 6 -11 9 -1 9 9 0 12 33 12 131 0
102 -3 128 -12 122 -20 -12 -38 -12 -38 -1 0 5 6 8 12 6 7 -3 21 4 32 13 10
10 23 16 28 13 5 -3 41 -8 81 -11z m-129 -288 c3 -8 1 -15 -5 -15 -6 0 -17 7
-25 15 -14 13 -13 15 4 15 11 0 22 -7 26 -15z m-384 -1 c0 -8 -19 -13 -24 -6
-3 5 1 9 9 9 8 0 15 -2 15 -3z m20 -38 c14 -18 14 -19 -6 -8 -12 6 -25 8 -30
4 -5 -4 -2 1 5 11 8 9 14 16 15 15 1 -2 8 -12 16 -22z m-60 -6 c-19 -13 -30
-13 -30 0 0 6 10 10 23 10 18 0 19 -2 7 -10z m-10860 -164 c0 -3 -4 -8 -10
-11 -5 -3 -10 -1 -10 4 0 6 5 11 10 11 6 0 10 -2 10 -4z m1693 -243 c-7 -2
-19 -2 -25 0 -7 3 -2 5 12 5 14 0 19 -2 13 -5z m3810 -190 c-13 -2 -35 -2 -50
0 -16 2 -5 4 22 4 28 0 40 -2 28 -4z m-126 -9 c-3 -3 -12 -4 -19 -1 -8 3 -5 6
6 6 11 1 17 -2 13 -5z m-7309 -1993 c184 -38 311 -94 441 -194 54 -42 141
-139 173 -195 l18 -30 -248 -191 -247 -191 -23 28 c-101 118 -177 177 -277
214 -53 20 -79 23 -215 23 -143 -1 -161 -3 -235 -28 -214 -75 -359 -205 -459
-412 -60 -122 -84 -210 -93 -330 -11 -155 36 -305 126 -407 51 -57 176 -123
266 -139 92 -17 286 -6 365 21 117 40 231 107 331 196 27 24 51 44 54 44 3 0
264 -284 329 -359 l21 -23 -70 -65 c-545 -504 -1513 -511 -1907 -15 -218 275
-261 663 -118 1067 76 213 182 377 355 551 255 256 568 407 942 454 112 14
355 4 471 -19z m2663 -1191 c159 -641 288 -1168 288 -1173 1 -4 -155 -6 -346
-5 l-348 3 -46 225 -45 225 -496 3 -496 2 -137 -230 -137 -230 -340 0 c-187 0
-338 4 -336 8 2 5 338 534 748 1175 l744 1167 330 -2 330 -3 287 -1165z
m-1423 -2060 c20 -33 55 -90 78 -126 l41 -66 75 123 c68 112 78 124 107 127
17 2 31 0 31 -3 0 -4 -40 -74 -90 -157 l-90 -149 0 -85 0 -84 -35 0 -35 0 0
84 0 84 -90 147 c-49 81 -90 151 -90 156 0 5 14 9 30 9 27 0 36 -8 68 -60z
m859 24 c124 -77 150 -253 55 -366 -64 -76 -206 -101 -308 -54 -190 89 -176
368 23 442 24 9 64 13 110 11 59 -3 82 -10 120 -33z m405 -136 c2 -145 6 -177
21 -199 23 -35 58 -49 117 -49 40 0 56 5 81 28 40 36 48 78 49 255 l0 137 30
0 30 0 0 -162 c0 -186 -7 -222 -52 -265 -42 -41 -76 -53 -144 -53 -101 0 -165
42 -189 124 -15 51 -22 336 -8 349 3 4 19 7 34 7 l27 0 4 -172z m883 146 c56
-29 85 -75 85 -136 0 -64 -23 -112 -66 -139 l-34 -21 45 -61 c73 -100 73 -99
29 -95 -35 3 -43 9 -89 75 l-50 73 -72 0 -73 0 0 -75 0 -75 -35 0 -35 0 0 241
0 241 128 -4 c104 -3 135 -7 167 -24z m892 3 c24 -13 30 -22 26 -37 -8 -29
-17 -32 -57 -15 -45 19 -129 19 -165 0 -30 -15 -46 -52 -35 -80 9 -22 46 -39
141 -65 116 -31 154 -73 139 -153 -7 -38 -47 -80 -89 -96 -42 -16 -147 -13
-200 5 -59 20 -73 37 -59 68 l11 24 47 -24 c64 -32 169 -34 202 -4 29 28 29
75 0 94 -13 8 -63 26 -113 40 -109 30 -145 62 -145 127 0 56 22 93 72 118 36
19 56 22 118 18 43 -2 89 -11 107 -20z m341 -189 l2 -208 131 0 130 0 -3 -27
-3 -28 -162 -3 -163 -2 0 240 0 241 33 -3 32 -3 3 -207z m799 176 c124 -77
150 -253 55 -366 -64 -76 -206 -101 -308 -54 -190 89 -176 368 23 442 24 9 64
13 110 11 59 -3 82 -10 120 -33z m658 17 c22 -10 49 -26 60 -34 20 -16 20 -16
0 -36 l-20 -21 -49 25 c-135 68 -276 -11 -276 -155 0 -73 30 -126 89 -157 49
-25 117 -30 170 -12 l31 11 0 79 0 79 35 0 35 0 0 -94 0 -94 -47 -23 c-70 -35
-173 -38 -242 -9 -196 85 -186 374 16 446 56 19 150 17 198 -5z m633 -203
c130 -287 121 -258 79 -258 -33 0 -36 3 -60 60 l-26 60 -126 0 -126 0 -26 -60
c-25 -57 -28 -60 -61 -60 -41 0 -50 -29 80 258 101 222 101 222 133 222 32 0
32 0 133 -222z m499 50 l138 -171 5 169 5 169 33 3 32 3 0 -241 0 -241 -27 3
c-22 2 -56 38 -168 177 l-140 174 -3 -177 -2 -177 -33 3 -32 3 -3 225 c-1 123
0 230 2 237 3 7 16 13 30 13 19 0 52 -34 163 -172z m1095 156 c25 -8 54 -24
64 -35 16 -18 16 -20 0 -38 -17 -19 -18 -19 -63 5 -72 38 -168 28 -227 -24
-27 -24 -56 -91 -56 -132 0 -51 32 -113 75 -146 47 -36 143 -46 193 -20 32 16
32 18 32 91 l0 75 35 0 36 0 -3 -92 -3 -93 -54 -27 c-68 -35 -172 -39 -236 -9
-125 57 -178 208 -115 330 23 46 84 100 131 117 48 18 138 17 191 -2z m639 1
c62 -22 126 -88 144 -149 19 -63 19 -103 0 -157 -35 -99 -121 -159 -228 -159
-81 0 -130 17 -181 62 -129 112 -97 322 59 394 60 28 141 32 206 9z m717 -17
l3 -28 -135 0 -136 0 0 -75 0 -75 121 0 120 0 -3 -27 -3 -28 -117 -3 -118 -3
0 -74 0 -75 140 0 140 0 0 -30 0 -30 -175 0 -175 0 0 233 c0 129 3 237 7 241
4 3 79 5 167 4 l161 -3 3 -27z m509 9 c24 -13 30 -22 26 -37 -8 -29 -17 -32
-57 -15 -45 19 -129 19 -165 0 -30 -15 -46 -52 -35 -80 9 -22 46 -39 141 -65
116 -31 154 -73 139 -153 -7 -38 -47 -80 -89 -96 -42 -16 -147 -13 -200 5 -59
20 -73 37 -59 68 l11 24 47 -24 c64 -32 169 -34 202 -4 29 28 29 75 0 94 -13
8 -63 26 -113 40 -109 30 -145 62 -145 127 0 56 22 93 72 118 36 19 56 22 118
18 43 -2 89 -11 107 -20z m643 -82 l0 -105 135 0 134 0 3 103 3 102 33 3 32 3
0 -240 0 -241 -35 0 -35 0 0 105 0 105 -135 0 -135 0 0 -105 0 -105 -35 0 -35
0 0 233 c0 129 3 237 7 240 3 4 19 7 35 7 l28 0 0 -105z m940 75 l0 -30 -135
0 -135 0 0 -75 0 -75 120 0 120 0 0 -30 0 -30 -120 0 -120 0 0 -75 0 -75 140
0 140 0 0 -30 0 -30 -172 2 -173 3 -3 225 c-1 123 0 230 2 237 4 10 46 13 171
13 l165 0 0 -30z m535 4 c56 -29 85 -75 85 -136 0 -64 -23 -112 -66 -139 l-34
-21 45 -61 c73 -100 73 -99 29 -95 -35 3 -43 9 -89 75 l-50 73 -72 0 -73 0 0
-75 0 -75 -35 0 -35 0 0 241 0 241 128 -4 c104 -3 135 -7 167 -24z m653 -6 l3
-28 -135 0 -136 0 0 -75 0 -75 121 0 120 0 -3 -27 -3 -28 -117 -3 -118 -3 0
-74 0 -75 140 0 140 0 0 -30 0 -30 -175 0 -175 0 0 233 c0 129 3 237 7 241 4
3 79 5 167 4 l161 -3 3 -27z"/>
<path d="M9936 11828 c3 -5 10 -6 15 -3 13 9 11 12 -6 12 -8 0 -12 -4 -9 -9z"/>
<path d="M21220 12447 l5 -132 3 124 c1 68 -1 128 -5 132 -4 5 -6 -51 -3 -124z"/>
<path d="M9649 8614 c-118 -196 -215 -361 -217 -365 -2 -5 130 -9 293 -9 l297
0 -5 23 c-3 12 -36 173 -73 357 -37 184 -70 339 -74 343 -4 4 -103 -153 -221
-349z"/>
<path d="M9832 6389 c-28 -14 -51 -36 -68 -66 -23 -37 -26 -53 -22 -106 6
-104 72 -167 174 -167 132 0 220 125 173 247 -37 98 -158 141 -257 92z"/>
<path d="M11120 6305 l0 -105 86 0 c122 0 153 21 154 103 0 77 -49 107 -177
107 l-63 0 0 -105z"/>
<path d="M13152 6389 c-28 -14 -51 -36 -68 -66 -23 -37 -26 -53 -22 -106 6
-104 72 -167 174 -167 132 0 220 125 173 247 -37 98 -158 141 -257 92z"/>
<path d="M14521 6369 c-5 -13 -25 -61 -45 -106 -20 -45 -36 -84 -36 -87 0 -3
43 -6 95 -6 52 0 95 2 95 5 0 7 -90 208 -95 213 -2 3 -9 -6 -14 -19z"/>
<path d="M16723 6391 c-131 -61 -133 -255 -2 -321 69 -36 157 -24 213 28 80
75 71 209 -19 278 -49 37 -131 44 -192 15z"/>
<path d="M20020 6305 l0 -105 86 0 c122 0 153 21 154 103 0 77 -49 107 -177
107 l-63 0 0 -105z"/>
</g>
</svg>
