<?xml version="1.0" standalone="no"?>
<!DOCTYPE svg PUBLIC "-//W3C//DTD SVG 20010904//EN"
 "http://www.w3.org/TR/2001/REC-SVG-20010904/DTD/svg10.dtd">
<svg version="1.0" xmlns="http://www.w3.org/2000/svg"
 width="1024.000000pt" height="1024.000000pt" viewBox="0 0 1024.000000 1024.000000"
 preserveAspectRatio="xMidYMid meet">

<g transform="translate(0.000000,1024.000000) scale(0.100000,-0.100000)"
fill="#000000" stroke="none">
<path d="M3000 9073 c4 -68 2 -73 -20 -73 -57 0 -188 -76 -167 -97 4 -3 1 -13
-6 -21 -10 -13 -8 -14 15 -10 26 5 26 5 10 -18 -9 -12 -29 -30 -44 -41 -15
-10 -56 -52 -90 -93 -34 -41 -68 -80 -75 -87 -8 -6 -13 -13 -12 -15 1 -1 -4
-20 -11 -42 -7 -21 -15 -34 -19 -29 -3 6 -18 13 -33 17 -16 3 -28 13 -28 21 0
21 -18 19 -24 -2 -2 -10 -7 -41 -11 -70 -7 -57 -16 -63 -94 -63 l-44 0 7 -46
c3 -26 6 -77 6 -115 l0 -68 63 -3 62 -3 6 -56 c6 -59 39 -138 65 -160 12 -10
11 -2 -4 37 -23 61 -23 89 1 88 9 -1 17 3 17 10 1 20 30 -42 32 -68 1 -14 4
-23 7 -21 2 3 11 -4 19 -16 12 -18 11 -22 -12 -44 -14 -13 -26 -20 -26 -15 0
6 -5 10 -10 10 -6 0 -8 -10 -4 -24 4 -19 -2 -30 -30 -52 -20 -16 -36 -34 -36
-40 0 -6 42 -50 93 -97 l94 -86 32 46 c18 25 41 47 52 50 10 3 19 10 19 15 0
5 -4 7 -9 4 -5 -4 -7 3 -4 14 4 13 -3 29 -21 47 -14 14 -26 30 -26 35 0 5 -5
6 -12 2 -6 -4 -8 -3 -4 4 3 6 1 14 -6 19 -7 4 -20 17 -28 28 -8 11 15 -7 50
-41 36 -33 88 -73 115 -89 28 -16 52 -32 55 -35 3 -3 14 -6 26 -7 11 -1 34 -8
50 -15 l29 -12 -42 -4 c-24 -2 -43 -7 -43 -13 0 -5 -11 -9 -25 -9 -57 0 -8
-34 65 -46 l40 -7 0 -63 0 -64 126 0 126 0 -4 62 -3 62 38 8 c54 11 97 35 134
74 18 19 40 34 50 34 14 -1 56 -47 89 -99 4 -5 168 138 176 154 5 7 -4 28 -22
50 -17 21 -30 45 -30 54 0 10 23 50 51 89 38 55 54 88 62 133 l12 61 52 -4 53
-5 0 124 0 123 -65 0 -65 0 0 55 c0 67 -15 106 -69 179 -23 30 -41 58 -41 60
0 3 18 18 40 32 22 15 40 31 40 37 0 10 -6 16 -114 115 l-58 54 -42 -48 -43
-48 -31 22 c-44 32 -141 75 -182 82 -35 5 -35 6 -38 63 l-3 57 -125 0 -126 0
2 -47z m435 -203 c-3 -6 5 -10 19 -10 16 0 32 -11 47 -32 13 -17 16 -28 8 -23
-67 40 -89 57 -84 65 3 6 8 10 11 10 3 0 2 -4 -1 -10z m-345 -191 l0 -139 -33
-16 -33 -16 -94 97 c-52 53 -96 100 -98 105 -6 17 110 84 176 101 37 9 70 15
75 12 4 -2 7 -67 7 -144z m242 109 c37 -17 77 -41 89 -54 l23 -24 -35 -38
c-19 -20 -62 -66 -95 -102 l-60 -65 -37 18 -37 19 0 67 c0 38 3 103 7 145 l6
78 36 -7 c20 -3 66 -20 103 -37z m218 4 c0 -5 11 -14 24 -21 13 -7 31 -29 40
-49 l18 -37 -23 25 c-12 14 -36 40 -53 58 -16 17 -25 32 -18 32 7 0 12 -4 12
-8z m-708 -236 c104 -93 128 -127 111 -154 -9 -15 -30 -17 -154 -17 l-144 0 3
30 c6 71 62 225 81 225 5 0 51 -38 103 -84z m722 42 c29 -52 56 -139 56 -185
l0 -33 -87 0 c-49 0 -118 3 -155 7 -66 6 -68 7 -68 33 0 22 21 48 101 124 56
53 107 96 115 96 7 0 24 -19 38 -42z m146 -45 c21 -44 26 -88 11 -97 -5 -3
-12 11 -16 32 -4 20 -18 64 -31 97 -22 55 -22 58 -4 35 11 -14 29 -44 40 -67z
m-509 -141 c24 -21 32 -38 36 -74 5 -42 3 -50 -25 -78 -23 -23 -40 -30 -68
-30 -50 0 -100 33 -114 75 -34 103 89 180 171 107z m-263 -128 c12 -4 22 -14
22 -23 0 -25 -195 -213 -216 -209 -10 2 -28 23 -41 48 -23 45 -54 168 -46 183
5 8 248 9 281 1z m600 0 l91 -7 -6 -31 c-17 -89 -71 -196 -99 -196 -8 0 -57
41 -109 91 -76 74 -95 98 -95 120 0 29 0 29 63 29 35 0 105 -3 155 -6z m-120
-348 c-67 -58 -210 -105 -229 -75 -5 8 -9 71 -9 141 l0 126 33 20 32 20 103
-102 103 -101 -33 -29z m-347 214 c17 -10 19 -23 19 -155 l0 -145 -30 0 c-61
0 -211 75 -226 114 -6 16 176 196 199 196 10 0 27 -5 38 -10z m-414 -172 c-3
-8 -6 -5 -6 6 -1 11 2 17 5 13 3 -3 4 -12 1 -19z"/>
<path d="M6222 9103 c-51 -25 -99 -88 -111 -145 -7 -30 -11 -205 -11 -449 0
-324 3 -406 14 -434 l15 -34 76 -3 77 -3 19 -49 c22 -59 70 -112 124 -137 61
-28 172 -26 234 5 52 27 108 84 123 126 8 26 13 27 91 33 113 9 639 8 653 -1
6 -4 17 -24 23 -44 15 -46 86 -110 139 -126 49 -15 151 -16 189 -1 48 18 109
76 133 128 l24 50 91 3 90 3 3 58 c3 48 0 57 -14 57 -15 0 -16 9 -11 75 l7 74
-24 -9 c-26 -10 -79 0 -116 21 -14 7 -42 14 -63 15 -21 1 -43 7 -50 12 -7 5
-36 17 -66 27 -149 49 -335 -39 -376 -179 l-12 -41 -202 -3 -201 -2 0 169 0
169 346 7 c340 7 442 3 599 -25 66 -12 98 -28 133 -69 l24 -26 -5 44 c-7 56
-49 109 -112 141 -42 21 -67 25 -172 28 l-123 4 -162 167 -162 166 -188 3
-187 3 -7 51 c-6 41 -15 59 -48 93 -25 27 -56 47 -81 54 -25 7 -159 11 -365
11 -280 0 -330 -3 -358 -17z m705 -88 c33 -22 42 -72 45 -257 2 -126 0 -169
-9 -172 -7 -3 -183 -8 -392 -12 l-380 -7 5 119 c9 245 12 272 30 303 9 16 27
34 38 40 34 18 634 5 663 -14z m500 -237 c15 -18 64 -70 109 -116 70 -72 78
-83 60 -88 -12 -2 -120 -3 -241 -2 l-220 3 -1 110 c-1 72 2 113 10 117 6 4 66
8 133 8 l123 0 27 -32z m-457 -463 l-1 -185 -67 0 -67 0 -18 48 c-39 110 -150
192 -261 192 -127 0 -264 -98 -285 -204 -6 -26 -12 -31 -39 -34 l-32 -3 2 176
3 177 205 0 c113 0 255 3 315 7 61 4 140 9 177 9 l68 2 0 -185z m882 -111 c39
-20 68 -74 68 -125 0 -118 -120 -179 -220 -113 -70 47 -91 123 -50 189 41 66
126 87 202 49z m-1236 -4 c42 -27 79 -100 70 -141 -8 -41 -41 -86 -78 -105
-108 -56 -240 47 -209 163 10 38 50 85 81 96 36 13 104 6 136 -13z"/>
<path d="M6810 8899 c0 -4 7 -20 15 -35 8 -16 15 -50 15 -76 0 -70 -25 -91
-120 -101 -32 -3 -31 -4 8 -5 81 -3 132 45 132 127 0 28 -7 48 -25 68 -13 15
-25 25 -25 22z"/>
<path d="M4130 9100 c0 -5 -18 -21 -40 -35 -32 -20 -40 -31 -40 -55 0 -17 6
-33 14 -36 8 -3 26 -23 41 -44 l27 -38 36 41 c20 23 47 50 60 60 33 27 27 44
-22 68 -25 11 -47 27 -50 35 -6 16 -26 19 -26 4z"/>
<path d="M4990 9022 c-30 -2 -58 -9 -62 -15 -14 -22 -9 -65 10 -72 9 -4 83
-10 164 -13 l147 -5 12 -36 c17 -49 14 -220 -4 -238 -21 -21 -101 -26 -312
-18 l-197 7 -29 62 -29 61 27 6 c16 4 44 7 64 8 19 0 40 6 47 13 16 16 15 63
-2 77 -18 15 -325 25 -360 11 -21 -8 -26 -16 -26 -44 0 -46 29 -66 95 -66 l50
0 38 -75 39 -74 -48 -56 c-39 -45 -52 -54 -68 -48 -12 5 -59 8 -106 8 -74 0
-92 -4 -143 -29 -68 -35 -140 -108 -170 -174 -17 -36 -22 -66 -22 -132 0 -73
4 -93 28 -142 33 -67 96 -126 176 -165 49 -24 68 -28 146 -28 102 1 155 19
220 77 47 40 95 114 95 144 0 30 20 35 126 32 119 -3 154 14 154 74 0 35 11
56 82 155 92 128 174 223 191 223 11 0 67 -79 67 -94 0 -4 -15 -20 -34 -36
-18 -17 -44 -54 -57 -82 -20 -45 -24 -69 -24 -163 1 -96 4 -116 25 -160 34
-69 96 -128 156 -149 234 -81 455 52 472 286 11 155 -88 303 -232 348 -45 15
-149 19 -187 8 -25 -7 -30 -3 -69 63 -35 60 -44 85 -51 148 -16 147 -55 256
-102 285 -23 14 -191 25 -297 18z m189 -488 c3 -2 -9 -19 -25 -37 -17 -17 -68
-83 -115 -144 -46 -62 -87 -113 -91 -113 -9 0 -36 53 -107 203 l-47 102 190
-3 c105 -2 193 -5 195 -8z m-469 -33 c0 -10 32 -79 70 -155 39 -75 68 -141 65
-146 -3 -6 -17 -10 -30 -10 -20 0 -26 7 -36 42 -17 66 -53 129 -98 173 -23 21
-41 43 -41 49 0 5 12 24 26 43 26 34 44 36 44 4z m-200 -86 c0 -18 -82 -146
-113 -176 -45 -45 -46 -71 -8 -110 29 -29 30 -29 155 -29 68 0 127 -4 130 -9
7 -10 -40 -73 -76 -101 -112 -86 -268 -59 -352 62 -25 37 -40 71 -43 100 -16
139 103 268 249 268 32 0 58 -2 58 -5z m1188 -31 c64 -32 97 -70 117 -136 26
-90 15 -151 -40 -224 -34 -44 -121 -84 -183 -84 -156 0 -257 140 -218 303 7
32 24 69 36 82 l23 24 43 -72 c24 -40 46 -85 50 -102 8 -39 42 -75 70 -75 28
0 74 53 74 86 0 17 -10 31 -33 44 -35 21 -113 151 -102 170 13 20 109 11 163
-16z m-1045 -102 c50 -95 52 -92 -56 -92 -51 0 -96 2 -99 5 -3 3 15 44 39 91
l45 86 23 -22 c12 -11 34 -42 48 -68z"/>
<path d="M2595 8911 c-44 -43 -87 -81 -95 -84 -12 -4 -10 -10 10 -27 68 -57
108 -66 153 -35 12 8 29 15 39 15 10 0 18 5 18 10 0 6 5 9 12 8 7 -2 15 14 19
37 6 32 3 48 -16 80 -48 84 -50 84 -140 -4z"/>
<path d="M7150 8370 c0 -5 4 -10 9 -10 6 0 13 5 16 10 3 6 -1 10 -9 10 -9 0
-16 -4 -16 -10z"/>
<path d="M9060 7728 c0 -26 -4 -49 -8 -52 -4 -2 -18 11 -31 30 -23 33 -58 60
-66 52 -3 -2 -6 -34 -7 -71 -3 -76 12 -91 26 -25 l8 43 43 -49 43 -50 7 73 c5
49 4 76 -4 84 -8 8 -11 -1 -11 -35z"/>
<path d="M8520 7756 c0 -12 71 -146 78 -146 5 0 50 90 70 142 2 4 -2 8 -10 8
-7 0 -24 -23 -37 -51 -25 -56 -33 -55 -54 6 -8 22 -21 41 -30 43 -10 2 -17 1
-17 -2z"/>
<path d="M8754 7690 c-30 -78 -27 -97 10 -57 31 34 59 34 74 2 15 -32 36 -34
26 -2 -18 59 -54 127 -68 127 -8 0 -25 -28 -42 -70z m49 14 c11 -11 -3 -24
-18 -18 -8 4 -12 10 -9 15 6 11 18 12 27 3z"/>
<path d="M7142 7544 c-53 -27 -81 -72 -88 -142 l-7 -62 -77 0 c-44 0 -96 -7
-124 -16 -64 -22 -147 -100 -177 -166 l-24 -53 0 -715 0 -715 26 -56 c49 -104
148 -177 269 -199 35 -6 346 -9 845 -7 782 2 791 2 842 23 112 46 197 134 222
229 6 26 11 294 12 742 l2 702 -28 57 c-20 42 -42 67 -87 100 -70 52 -107 64
-210 71 l-78 6 0 64 c0 103 -41 153 -126 153 -78 0 -132 -62 -141 -161 l-6
-59 -143 0 -144 0 0 66 c0 64 -2 68 -39 105 -33 33 -45 39 -81 39 -81 0 -135
-56 -146 -153 l-7 -57 -143 0 -144 0 0 65 c0 62 -2 68 -38 106 -31 34 -46 42
-82 45 -30 3 -56 -1 -78 -12z m1230 -222 c4 -175 2 -191 -29 -205 -22 -10 -28
-8 -45 13 -19 23 -20 34 -14 165 5 125 8 142 27 157 15 13 26 15 39 8 17 -9
19 -26 22 -138z m-1132 112 c6 -14 10 -84 10 -155 0 -116 -2 -131 -20 -149
-27 -27 -46 -25 -66 5 -14 21 -15 44 -9 162 4 76 12 144 17 151 18 22 58 14
68 -14z m565 -1 c10 -28 19 -226 11 -267 -9 -47 -47 -69 -74 -42 -15 15 -17
36 -15 158 2 86 7 146 14 154 16 20 56 17 64 -3z m640 -642 l320 -1 -1 -553
c-2 -615 2 -584 -70 -647 -21 -18 -58 -42 -83 -53 -45 -20 -66 -20 -866 -21
l-820 -1 -46 27 c-51 30 -115 96 -129 134 -6 14 -10 254 -10 567 l-1 542 403
5 c383 5 556 5 1303 1z"/>
<path d="M7018 6663 c12 -2 32 -2 45 0 12 2 2 4 -23 4 -25 0 -35 -2 -22 -4z"/>
<path d="M7444 6656 c-3 -8 -4 -25 -2 -38 2 -19 10 -24 41 -26 20 -2 37 -8 37
-14 0 -6 -18 -26 -40 -45 -34 -29 -40 -41 -40 -73 0 -43 10 -49 78 -42 32 3
42 8 42 22 0 10 11 43 25 74 49 110 26 156 -75 156 -43 0 -62 -4 -66 -14z"/>
<path d="M7870 6661 c-20 -14 -21 -200 -1 -224 19 -24 157 -24 190 -1 20 14
22 22 17 63 -7 61 -7 61 0 96 9 49 -20 68 -114 72 -42 2 -84 0 -92 -6z m134
-92 c8 -7 -48 -39 -69 -39 -11 0 -4 49 8 53 14 6 48 -2 61 -14z"/>
<path d="M8328 6663 c-36 -9 -14 -103 23 -103 5 0 23 10 39 22 16 12 33 18 37
14 12 -11 -11 -40 -45 -56 -17 -8 -38 -24 -46 -35 -21 -27 -21 -81 0 -89 26
-10 154 -7 175 4 23 13 25 47 5 95 -12 27 -12 42 -4 65 14 41 3 76 -24 84 -26
6 -134 6 -160 -1z"/>
<path d="M8434 6265 c-15 -16 -24 -34 -22 -48 3 -19 8 -21 47 -18 51 3 55 -19
4 -30 -46 -9 -53 -17 -53 -63 0 -65 27 -79 113 -55 43 12 50 39 16 63 -20 14
-20 16 -5 37 25 36 21 104 -6 123 -32 23 -65 20 -94 -9z"/>
<path d="M7002 6264 c-32 -22 -25 -55 15 -74 30 -14 32 -18 26 -50 -4 -19 -7
-48 -8 -65 0 -28 2 -30 40 -30 l40 0 6 110 c3 61 4 113 2 118 -8 14 -98 7
-121 -9z"/>
<path d="M7463 6273 c-40 -5 -57 -25 -49 -58 6 -22 12 -25 47 -25 35 0 40 -2
34 -17 -18 -41 -28 -91 -22 -106 7 -20 48 -31 81 -23 26 6 31 26 43 161 l6 75
-54 -2 c-30 0 -68 -3 -86 -5z"/>
<path d="M7851 6271 c-8 -5 -13 -22 -12 -37 1 -16 4 -66 7 -111 l6 -83 38 0
c47 0 50 9 50 143 l0 97 -37 0 c-21 0 -44 -4 -52 -9z"/>
<path d="M7970 6261 c-19 -36 -12 -58 23 -70 l32 -12 -25 -19 c-14 -11 -28
-20 -32 -20 -4 0 -11 -11 -14 -26 -8 -32 28 -74 65 -74 39 0 71 11 71 24 0 6
-12 29 -27 51 -17 25 -22 40 -15 43 41 13 56 76 26 106 -23 23 -91 21 -104 -3z"/>
<path d="M8275 6257 c-4 -12 -2 -35 4 -50 9 -24 14 -26 50 -22 53 5 61 11 61
44 0 38 -17 51 -67 51 -36 0 -43 -3 -48 -23z"/>
<path d="M8322 6142 c-24 -20 -32 -35 -32 -59 0 -32 2 -33 39 -33 36 0 40 3
51 35 14 43 10 79 -10 82 -8 2 -30 -10 -48 -25z"/>
<path d="M7867 5915 c-24 -24 -22 -81 3 -95 22 -12 65 -7 86 11 21 17 26 6 9
-18 -9 -12 -26 -20 -46 -21 -43 -1 -52 -12 -57 -77 l-5 -56 98 3 c62 2 100 7
102 14 2 6 -7 25 -21 41 l-25 30 25 37 c32 47 34 90 6 119 -30 29 -150 38
-175 12z"/>
<path d="M6968 5913 c-35 -5 -50 -25 -46 -60 3 -26 6 -28 43 -25 22 2 45 8 50
14 7 8 6 9 -3 4 -10 -6 -11 2 -6 33 4 23 3 40 -2 40 -5 -1 -21 -4 -36 -6z"/>
<path d="M7075 5912 c-5 -4 -18 -17 -28 -29 -18 -21 -18 -21 2 -16 13 3 23 0
27 -10 3 -10 12 -13 22 -9 12 4 8 -5 -11 -29 -43 -53 -87 -122 -87 -136 0 -8
13 -13 34 -13 18 0 61 -3 95 -6 55 -6 61 -5 61 12 0 20 -40 44 -73 44 -18 0
-19 1 -3 23 58 79 68 115 46 158 -11 19 -64 27 -85 11z"/>
<path d="M7480 5912 c0 -4 -16 -6 -35 -4 -29 4 -36 0 -46 -21 -14 -31 -7 -52
20 -67 17 -9 24 -7 38 10 17 20 73 28 73 11 0 -5 -23 -23 -51 -40 -50 -31 -79
-75 -79 -121 0 -19 6 -20 110 -20 l110 0 0 30 c0 32 -22 50 -61 50 -21 0 -20
3 14 38 74 76 54 142 -43 142 -27 0 -50 -4 -50 -8z"/>
<path d="M6920 5690 c0 -11 4 -20 9 -20 5 0 7 9 4 20 -3 11 -7 20 -9 20 -2 0
-4 -9 -4 -20z"/>
<path d="M2130 7340 c-168 -44 -331 -152 -423 -278 -55 -75 -115 -203 -135
-288 -10 -43 -24 -80 -30 -82 -18 -6 -16 -172 2 -186 8 -6 23 -53 35 -103 41
-182 136 -314 322 -446 36 -25 98 -84 139 -129 124 -141 233 -249 246 -244 7
3 70 68 141 145 116 127 136 145 217 188 202 109 336 289 391 524 7 34 19 67
24 72 12 12 15 184 3 189 -4 2 -17 39 -30 83 -65 228 -199 394 -397 495 -106
53 -177 70 -315 76 -94 3 -129 1 -190 -16z m272 -81 c152 -30 278 -96 357
-185 47 -54 58 -87 37 -119 l-16 -24 -56 59 c-110 115 -224 166 -396 176 -178
11 -297 -35 -429 -166 -118 -117 -179 -258 -179 -417 0 -179 68 -324 202 -433
105 -84 182 -113 336 -126 92 -8 95 -11 66 -79 l-15 -38 -77 6 c-120 9 -288
71 -333 124 -13 15 -37 35 -53 43 -75 39 -174 189 -217 329 -39 131 -15 362
51 481 11 19 26 49 34 65 34 71 181 202 288 256 86 44 296 69 400 48z m-26
-210 c174 -32 321 -172 365 -349 18 -73 20 -95 11 -155 -20 -147 -122 -285
-257 -350 -103 -50 -167 -61 -262 -45 -99 16 -165 46 -230 104 -178 161 -214
400 -89 590 72 107 167 173 292 200 87 18 97 18 170 5z"/>
<path d="M2216 6860 c-104 -33 -177 -139 -175 -254 3 -190 194 -312 364 -232
63 29 87 55 121 131 60 131 13 278 -110 342 -36 19 -157 27 -200 13z m143
-139 c38 -27 65 -91 57 -134 -3 -18 -20 -46 -36 -62 -25 -23 -41 -30 -90 -33
-57 -4 -61 -3 -95 31 -30 30 -35 41 -35 84 0 29 7 58 16 72 41 58 131 79 183
42z"/>
<path d="M2363 6615 c0 -14 3 -25 8 -25 5 0 9 9 9 19 0 11 -4 22 -9 25 -5 3
-8 -6 -8 -19z"/>
<path d="M2346 6565 c-3 -8 -1 -15 4 -15 6 0 10 7 10 15 0 8 -2 15 -4 15 -2 0
-6 -7 -10 -15z"/>
<path d="M4860 7215 c-282 -73 -541 -280 -670 -534 -92 -181 -114 -441 -56
-666 44 -173 262 -585 551 -1040 45 -71 137 -218 205 -325 67 -107 133 -205
147 -217 43 -40 56 -31 121 80 34 56 90 147 125 202 153 239 276 441 406 667
285 499 341 646 341 898 0 213 -48 367 -171 551 -209 311 -639 476 -999 384z
m375 -90 c95 -17 267 -97 362 -169 106 -80 209 -210 257 -323 59 -140 71 -206
70 -373 -1 -147 -2 -160 -33 -250 -56 -166 -296 -604 -579 -1055 -69 -110
-148 -236 -175 -280 -27 -44 -53 -84 -59 -90 -16 -17 -13 -22 -325 480 -251
403 -458 779 -503 915 -88 260 -60 536 74 748 91 145 338 328 506 376 126 36
276 44 405 21z"/>
<path d="M4910 6897 c-223 -60 -391 -226 -460 -455 -19 -61 -22 -90 -18 -180
7 -169 60 -295 182 -428 116 -127 268 -189 461 -188 149 2 243 31 353 113 406
301 340 929 -117 1109 -144 57 -262 65 -401 29z m345 -123 c77 -30 111 -49
137 -75 15 -15 15 -20 2 -44 -8 -15 -17 -52 -20 -81 -4 -30 -10 -54 -14 -54
-15 0 -4 -60 15 -82 10 -13 18 -25 16 -28 -1 -3 3 -33 9 -66 12 -74 2 -134
-38 -214 -32 -64 -119 -137 -198 -165 -67 -24 -90 -52 -98 -118 -10 -81 -17
-85 -107 -77 -102 9 -174 45 -262 132 -146 144 -197 356 -133 555 52 160 192
289 366 338 87 24 237 14 325 -21z"/>
<path d="M5002 6418 c-28 -31 -37 -72 -22 -108 12 -30 24 -36 85 -43 23 -3 21
-4 -11 -6 -45 -1 -54 -11 -54 -62 0 -40 49 -63 103 -48 44 12 45 14 48 72 2
26 9 53 16 59 7 6 13 30 13 55 0 36 -6 50 -29 74 -25 24 -38 29 -78 29 -38 0
-54 -5 -71 -22z"/>
<path d="M4752 6220 c0 -14 2 -19 5 -12 2 6 2 18 0 25 -3 6 -5 1 -5 -13z"/>
<path d="M1052 7022 c-22 -15 -26 -76 -7 -96 25 -25 68 -17 79 15 17 51 -32
107 -72 81z"/>
<path d="M1040 6770 c-40 -40 -14 -120 39 -120 38 0 56 24 56 72 0 63 -53 90
-95 48z"/>
<path d="M1040 6100 c-6 -12 -10 -40 -8 -63 3 -36 7 -43 32 -52 24 -8 31 -6
47 14 23 28 24 69 3 99 -19 28 -60 29 -74 2z"/>
<path d="M3213 5875 c-162 -44 -281 -158 -319 -305 -12 -49 -17 -112 -17 -260
-1 -177 1 -199 20 -241 35 -79 143 -169 203 -169 20 0 20 -4 20 -420 l0 -419
46 -53 c26 -28 62 -73 81 -99 64 -89 85 -84 216 50 l107 110 2 303 c2 167 1
353 0 413 l-3 110 63 30 c80 38 151 122 167 197 14 62 14 308 1 379 -15 82
-76 196 -135 254 -115 113 -298 161 -452 120z m258 -123 c75 -36 134 -94 176
-174 26 -49 28 -61 26 -158 -1 -87 -5 -165 -12 -248 -1 -7 -5 -11 -10 -8 -5 3
-14 -14 -20 -39 -6 -24 -16 -47 -22 -51 -8 -5 -7 -9 1 -14 19 -11 -32 -56 -71
-64 -52 -10 -381 -7 -422 5 -44 12 -111 68 -133 112 -12 22 -15 64 -15 185 2
219 22 299 98 382 101 112 260 140 404 72z m-142 -1322 c0 -280 -4 -460 -10
-460 -5 0 -9 4 -9 9 0 5 -22 34 -50 64 l-49 54 0 391 1 391 36 4 c21 2 47 4
59 5 l23 2 -1 -460z"/>
<path d="M3212 5674 c-33 -16 -66 -43 -84 -68 -26 -36 -29 -47 -26 -94 6 -63
43 -122 107 -167 38 -27 51 -30 115 -30 64 0 78 3 116 30 63 44 100 106 100
170 0 63 -25 105 -88 149 -37 26 -54 31 -115 34 -62 3 -79 0 -125 -24z m182
-99 c54 -50 24 -143 -54 -160 -56 -12 -120 43 -120 104 0 71 117 109 174 56z"/>
<path d="M1020 5788 c-28 -46 -26 -93 5 -123 33 -33 70 -32 106 4 58 58 26
151 -52 151 -34 0 -42 -5 -59 -32z"/>
<path d="M1033 5498 c-31 -40 -19 -98 24 -117 50 -23 98 38 77 98 -8 21 -16
27 -50 29 -25 2 -45 -2 -51 -10z"/>
<path d="M6308 5413 c-9 -2 -20 -13 -23 -23 -3 -10 -33 -30 -71 -46 -74 -31
-127 -84 -169 -167 -45 -91 -30 -207 39 -311 41 -62 89 -96 145 -103 33 -5 40
-10 48 -37 8 -28 13 -31 48 -31 33 0 40 4 45 24 4 18 17 28 50 39 222 73 292
347 131 512 -42 44 -64 55 -178 95 -7 2 -13 13 -13 24 0 15 -24 36 -33 30 -1
-1 -10 -3 -19 -6z m142 -178 c56 -39 94 -112 94 -186 1 -73 -39 -141 -109
-184 -41 -25 -58 -30 -114 -30 -83 0 -119 20 -169 94 -34 49 -37 59 -37 121 0
61 3 72 38 124 50 75 96 98 188 94 54 -3 74 -9 109 -33z"/>
<path d="M6268 5130 c-14 -10 -31 -33 -38 -49 -33 -82 64 -170 143 -130 76 39
90 103 36 164 -26 30 -37 35 -74 35 -27 0 -51 -7 -67 -20z"/>
<path d="M1980 5403 c-14 -2 -62 -22 -108 -44 -149 -72 -252 -205 -286 -371
-27 -132 -16 -239 37 -360 26 -57 122 -169 182 -209 l35 -24 0 -158 0 -158 30
-10 30 -11 0 -123 c0 -68 5 -136 10 -150 6 -17 7 -33 0 -44 -5 -10 -12 -47
-16 -83 l-6 -65 67 -73 c37 -41 74 -84 82 -97 9 -13 29 -31 44 -39 42 -21 71
-3 167 105 l80 89 -5 239 -6 238 27 13 26 12 0 157 0 157 80 82 c91 92 131
166 156 285 51 241 -72 497 -291 604 -77 38 -83 39 -195 41 -63 1 -126 0 -140
-3z m18 -145 c3 -18 -35 -68 -53 -68 -6 0 -36 -22 -66 -49 -79 -70 -113 -148
-113 -256 0 -92 15 -134 88 -240 26 -38 44 -70 41 -74 -3 -3 -25 -4 -48 -2
-77 5 -137 94 -158 236 -22 146 18 279 111 375 76 78 189 123 198 78z m173
-194 c60 -30 70 -110 21 -159 -30 -31 -61 -39 -109 -32 -44 8 -69 29 -84 74
-30 93 77 167 172 117z m-103 -818 c1 -55 -1 -103 -7 -109 -5 -5 -35 -6 -70
-2 l-61 7 0 104 0 105 68 -3 67 -3 3 -99z m6 -152 c9 -23 7 -564 -1 -564 -16
1 -83 96 -83 116 0 12 7 41 15 64 19 54 19 83 -1 122 -13 25 -15 49 -9 131 6
86 11 104 31 124 27 27 40 29 48 7z m116 -114 c0 -5 -4 -10 -10 -10 -5 0 -10
5 -10 10 0 6 5 10 10 10 6 0 10 -4 10 -10z m26 -67 c4 -13 3 -45 -1 -71 -10
-59 -12 -202 -4 -196 4 2 9 -2 12 -10 3 -7 -7 -23 -23 -34 l-27 -21 -7 46 c-6
44 1 284 9 310 6 20 35 3 41 -24z"/>
<path d="M9017 5313 c-4 -3 -4 -29 -1 -58 l6 -51 -43 -13 c-55 -16 -69 -28
-69 -56 0 -19 7 -23 48 -29 l49 -6 9 -48 c6 -33 14 -48 27 -50 26 -5 54 24 61
63 6 30 12 36 54 47 42 12 47 17 47 43 0 28 -3 31 -52 39 l-52 10 -6 45 c-4
25 -8 52 -10 59 -5 12 -57 17 -68 5z"/>
<path d="M1042 5243 c-45 -38 -33 -108 21 -126 24 -8 33 -5 53 14 61 58 -10
166 -74 112z"/>
<path d="M7646 5072 c-35 -8 -50 -46 -41 -108 3 -22 3 -48 -1 -58 -6 -17 -73
-56 -94 -56 -6 0 -38 20 -70 45 -32 25 -64 45 -70 45 -13 0 -177 -141 -195
-168 -30 -42 -27 -57 25 -116 38 -43 50 -65 50 -90 0 -47 -15 -56 -96 -56 -99
0 -99 0 -98 -175 1 -183 2 -185 99 -185 65 0 76 -3 89 -22 25 -35 19 -58 -29
-109 -63 -67 -60 -83 26 -174 82 -86 130 -119 158 -110 11 3 34 24 51 46 18
21 37 39 45 39 7 0 35 -10 64 -21 l51 -22 0 -73 c0 -105 -2 -104 185 -104 104
0 156 4 161 11 4 7 9 43 12 81 l5 70 52 25 52 26 51 -53 51 -53 28 18 c64 41
193 158 193 175 0 10 3 26 6 34 4 11 -11 33 -46 67 -50 48 -52 52 -46 90 4 22
12 49 19 59 17 29 74 53 111 47 17 -3 46 2 64 10 l32 15 0 133 c0 157 0 156
-103 164 -63 5 -73 9 -84 31 -20 40 -16 56 32 115 l46 56 -21 29 c-30 42 -165
164 -205 186 l-35 18 -32 -30 c-59 -55 -77 -64 -107 -51 -53 22 -61 36 -61
102 0 97 -4 100 -162 102 -73 1 -146 -2 -162 -5z m228 -98 c3 -9 6 -37 6 -64
0 -66 20 -86 107 -110 100 -27 124 -26 158 10 16 17 32 30 35 30 6 0 120 -110
120 -116 0 -1 -16 -22 -36 -45 -31 -38 -36 -49 -32 -84 3 -22 18 -67 34 -100
l29 -60 73 -3 73 -3 -3 -66 -3 -67 -55 -12 c-45 -10 -63 -20 -96 -57 -94 -104
-98 -203 -12 -269 l23 -17 -50 -51 c-45 -45 -75 -63 -75 -42 0 4 -13 23 -28
41 -37 45 -65 43 -173 -10 l-88 -43 -7 -68 -7 -68 -83 0 -84 0 0 60 c0 71 -14
88 -101 120 -33 13 -62 27 -65 31 -12 20 -55 7 -101 -30 l-49 -38 -30 31 c-16
17 -40 43 -52 58 l-24 26 41 44 c47 49 49 66 20 142 -32 87 -47 100 -121 106
l-63 5 -3 83 -3 82 61 0 c50 0 65 4 84 23 28 28 70 150 62 181 -3 12 -24 44
-47 70 l-42 47 47 44 c25 25 48 45 50 45 2 0 27 -16 56 -35 29 -19 62 -35 75
-35 25 0 162 53 177 68 13 13 27 79 28 125 l0 37 84 0 c67 0 85 -3 90 -16z"/>
<path d="M7668 4681 c-104 -42 -176 -115 -229 -235 -63 -144 39 -366 203 -441
103 -47 217 -41 329 15 113 58 189 182 197 321 4 71 2 83 -28 148 -39 84 -96
141 -178 179 -77 35 -223 42 -294 13z m224 -97 c66 -21 132 -75 158 -130 28
-58 31 -159 6 -219 -54 -129 -252 -214 -362 -157 -56 30 -78 50 -123 110 -63
85 -75 177 -34 255 21 42 92 116 127 135 61 32 138 34 228 6z"/>
<path d="M7836 4131 c-3 -4 6 -6 19 -3 14 2 25 6 25 8 0 8 -39 4 -44 -5z"/>
<path d="M1054 4990 c-27 -11 -38 -63 -21 -99 9 -19 21 -27 44 -29 27 -3 34 2
47 27 22 42 20 77 -6 95 -25 18 -34 19 -64 6z"/>
<path d="M8818 4788 c-9 -7 -19 -23 -22 -34 -8 -26 13 -34 92 -34 74 0 92 -12
92 -59 0 -21 3 -66 6 -100 l7 -62 31 3 31 3 -4 73 c-3 76 10 129 34 129 7 0
38 8 69 17 51 16 56 20 56 47 l0 29 -188 0 c-135 0 -193 -4 -204 -12z"/>
<path d="M1042 4738 c-7 -7 -12 -33 -12 -60 0 -40 4 -50 25 -64 23 -15 27 -15
50 0 20 13 25 25 25 61 0 26 -6 50 -16 59 -18 19 -55 21 -72 4z"/>
<path d="M2720 4420 c0 -45 -3 -52 -26 -60 -14 -6 -39 -10 -55 -10 -25 0 -29
-4 -29 -29 0 -28 3 -30 45 -37 49 -7 55 -12 64 -58 5 -24 13 -32 32 -34 22 -3
27 2 35 34 10 41 22 50 77 59 30 5 37 10 37 29 0 27 -17 36 -64 36 -38 0 -59
30 -60 85 -1 31 -4 35 -28 35 -27 0 -28 -2 -28 -50z"/>
<path d="M1030 4211 c-14 -28 -13 -53 6 -79 20 -28 69 -30 84 -3 14 26 13 74
-2 89 -20 20 -76 15 -88 -7z"/>
<path d="M4349 4145 c-80 -16 -197 -63 -268 -108 -127 -81 -253 -239 -388
-490 -37 -67 -72 -132 -79 -144 -8 -12 -36 -28 -66 -38 -185 -60 -320 -197
-389 -392 -28 -77 -39 -281 -29 -522 7 -187 17 -235 52 -258 7 -4 53 -10 102
-13 l88 -5 15 -44 c40 -119 159 -242 282 -293 l46 -19 -55 5 c-30 3 -232 6
-447 6 -216 0 -393 3 -393 8 0 4 21 15 46 26 112 46 224 197 239 323 7 66 -8
170 -32 218 -32 63 -97 135 -156 173 -72 46 -87 52 -185 66 l-73 11 -45 135
c-32 96 -46 154 -48 200 -1 36 -3 94 -4 129 -2 59 -5 66 -41 102 l-39 39 -111
0 c-108 0 -111 -1 -127 -26 -16 -24 -16 -27 3 -52 19 -26 25 -27 117 -30 l96
-3 0 -107 0 -107 -106 -110 c-58 -61 -155 -165 -216 -233 -61 -67 -121 -125
-133 -128 -12 -3 -41 -4 -65 -2 -49 3 -35 -23 -133 254 l-53 151 52 -1 c88 -1
140 54 109 114 -8 16 -24 34 -34 40 -12 6 -95 10 -200 10 l-180 0 -20 -26
c-25 -32 -27 -64 -6 -104 18 -34 48 -45 111 -37 50 5 53 2 92 -100 l19 -50
-32 -35 c-18 -19 -34 -41 -37 -48 -3 -10 -17 -8 -63 10 -46 18 -81 24 -150 24
-79 1 -97 -2 -145 -26 -73 -36 -164 -109 -195 -156 -61 -92 -89 -241 -65 -343
17 -72 63 -158 109 -203 20 -20 66 -52 101 -71 l65 -35 -193 0 c-114 0 -201
-4 -213 -10 -27 -15 -25 -64 3 -84 20 -14 434 -16 4191 -16 3716 0 4171 2
4197 15 36 19 42 68 11 85 -12 6 -112 10 -253 10 l-233 0 31 20 c97 63 144
236 93 345 -21 44 -93 118 -135 137 -11 5 -28 23 -38 39 -9 16 -23 29 -29 29
-7 0 -34 11 -61 25 -27 14 -63 25 -80 25 -17 0 -37 4 -45 9 -24 16 -46 0 -68
-49 -26 -56 -28 -76 -10 -83 10 -4 10 -6 0 -6 -7 -1 -13 -7 -13 -15 0 -8 -7
-16 -15 -20 -23 -8 -18 -29 5 -23 21 5 27 -7 9 -19 -6 -3 -22 -30 -35 -58 -30
-64 -34 -196 -7 -236 30 -46 68 -82 98 -96 l30 -13 -35 -1 c-19 0 -176 -2
-348 -4 l-313 -3 21 21 c14 15 33 21 63 21 l42 0 -3 131 c-2 86 0 134 7 139 7
4 11 59 11 152 0 134 -1 145 -17 138 -10 -4 -29 -10 -43 -13 -14 -3 -48 -24
-75 -48 -50 -42 -52 -43 -94 -32 l-43 11 7 41 c15 89 24 238 23 371 0 77 -2
132 -5 123 -2 -10 -9 -18 -14 -18 -5 0 -9 -8 -10 -17 0 -15 -2 -15 -9 2 -5 12
-10 -64 -11 -195 -1 -118 -3 -228 -3 -245 -1 -16 2 -38 7 -47 6 -14 -1 -18
-40 -24 -63 -9 -122 -35 -165 -72 -78 -69 -118 -216 -84 -306 17 -43 84 -116
108 -116 6 0 8 -3 4 -7 -6 -6 -932 -22 -944 -17 -1 1 22 13 52 28 80 39 198
153 235 228 17 34 31 68 31 77 0 13 13 16 79 16 92 0 114 14 153 94 22 43 23
61 26 297 3 153 0 279 -7 323 -34 217 -175 385 -386 458 -76 26 -91 27 -295
31 l-215 4 -90 131 c-171 250 -315 411 -442 498 -81 55 -107 67 -253 111
l-105 32 -465 2 c-359 2 -480 0 -531 -11z m443 -113 c2 -15 2 -166 0 -335 l-4
-307 -393 0 c-215 0 -453 -3 -528 -7 -119 -5 -137 -4 -137 9 0 8 21 60 47 114
129 275 295 442 513 514 87 29 157 37 341 39 l157 1 4 -28z m553 6 c17 -9 61
-22 98 -31 109 -24 207 -86 319 -200 54 -55 95 -103 92 -108 -3 -5 2 -12 10
-15 9 -3 16 -14 16 -24 0 -10 7 -20 15 -24 8 -3 15 -12 15 -20 0 -8 12 -23 28
-34 25 -18 143 -161 150 -182 5 -13 -154 -13 -178 0 -10 5 -36 36 -58 69 -32
45 -38 61 -29 71 10 10 8 12 -6 7 -13 -5 -26 5 -50 39 -43 63 -88 107 -174
171 -87 66 -155 93 -251 100 l-74 6 20 -32 c10 -17 56 -71 102 -118 132 -138
262 -304 249 -318 -3 -2 -171 -5 -374 -7 l-370 -3 -1 339 -1 338 211 -4 c166
-3 217 -8 241 -20z m-547 -1247 c-2 -274 -6 -502 -10 -506 -3 -4 -74 -3 -156
1 l-149 7 -6 81 c-7 97 -35 183 -82 251 -86 126 -236 231 -363 256 -39 7 -101
10 -160 6 -88 -5 -104 -9 -187 -51 -105 -52 -192 -129 -254 -226 -51 -78 -70
-140 -78 -247 l-6 -83 -52 0 c-46 0 -53 3 -59 23 -3 12 -6 146 -5 297 0 315 8
366 73 463 50 76 113 130 204 174 93 46 103 47 790 51 l503 3 -3 -500z m1877
472 c149 -46 243 -124 310 -258 l40 -80 3 -165 c2 -91 1 -234 -3 -317 l-7
-153 -53 0 -53 0 -1 73 c-2 102 -22 176 -69 254 -118 199 -344 306 -577 272
-143 -21 -301 -123 -388 -251 -44 -65 -87 -207 -87 -289 l0 -59 -447 0 -448 0
-2 498 -1 497 856 -1 c845 0 858 0 927 -21z m-4165 -451 c0 -10 11 -52 25 -92
14 -40 25 -79 25 -86 0 -6 -13 -17 -30 -24 -16 -7 -55 -36 -85 -65 -140 -135
-171 -343 -79 -526 30 -59 108 -130 178 -160 57 -25 74 -42 34 -35 -13 3 -261
5 -553 6 l-530 1 65 31 c76 37 149 106 184 177 24 46 30 51 59 51 56 0 77 -10
77 -37 0 -38 18 -63 45 -63 21 0 26 6 31 40 6 35 13 43 59 69 31 17 62 45 75
67 30 48 37 121 16 162 -9 17 -16 38 -16 45 0 8 37 55 83 104 45 49 136 149
202 221 66 72 123 132 128 132 4 0 7 -8 7 -18z m3975 -211 c54 -24 109 -81
141 -147 94 -192 -34 -408 -251 -422 -63 -4 -80 -1 -134 23 -193 87 -245 331
-103 478 88 91 231 119 347 68z m-2449 0 c97 -44 162 -141 172 -256 12 -154
-90 -283 -249 -314 -101 -20 -203 23 -277 117 -56 70 -75 126 -70 202 9 115
69 198 183 251 55 26 184 26 241 0z m-2272 -65 c14 -41 26 -77 26 -80 0 -3
-10 -6 -22 -6 -17 1 -31 15 -54 54 l-31 54 26 26 c14 14 26 26 27 26 1 0 13
-33 28 -74z m-270 -2 c9 -3 16 -11 16 -17 0 -6 -49 -59 -110 -117 -98 -95
-110 -109 -110 -140 0 -54 29 -101 79 -127 39 -20 58 -23 168 -23 113 0 123
-1 123 -19 0 -26 -91 -108 -148 -134 -109 -48 -248 -15 -331 79 -144 163 -63
430 149 495 31 9 143 11 164 3z m1290 -8 c65 -20 120 -58 156 -108 83 -114 66
-304 -36 -398 -87 -80 -181 -103 -287 -70 -124 39 -188 125 -195 266 -4 72 -1
88 23 142 18 41 46 79 83 114 l55 52 28 -80 c35 -95 46 -159 30 -168 -17 -11
-13 -47 8 -83 35 -56 95 -56 130 1 28 44 27 80 -3 103 -17 13 -31 45 -50 113
-15 52 -29 103 -32 113 -7 22 24 23 90 3z m-1154 -76 c0 -5 -9 -10 -21 -10
-11 0 -17 5 -14 10 3 6 13 10 21 10 8 0 14 -4 14 -10z m347 -130 c44 -41 37
-97 -17 -125 -38 -20 -61 -13 -95 26 -33 40 -32 62 6 93 36 31 77 33 106 6z
m5759 -129 c38 -23 73 -78 81 -125 11 -69 -66 -156 -137 -156 -115 0 -197 106
-155 200 40 90 136 126 211 81z m1018 -2 c34 -27 66 -89 66 -129 0 -44 -35
-107 -70 -125 -61 -32 -161 -14 -209 38 -50 55 -32 163 35 216 38 30 140 30
178 0z m-2915 -69 c36 -100 135 -207 244 -266 l55 -29 -1008 0 -1007 0 61 29
c103 49 234 203 253 296 l6 30 687 0 687 0 22 -60z"/>
<path d="M5080 3123 c-64 -5 -80 -16 -80 -52 0 -46 15 -51 141 -51 94 0 121 3
133 16 19 19 20 44 3 68 -14 20 -94 27 -197 19z"/>
<path d="M5872 3113 c-13 -3 -27 -16 -33 -29 -13 -35 -12 -41 11 -64 15 -15
33 -20 78 -20 75 0 106 16 110 57 5 54 -61 76 -166 56z"/>
<path d="M6285 2466 c-70 -30 -106 -108 -86 -182 47 -175 299 -158 326 21 8
51 -26 121 -74 152 -39 27 -117 31 -166 9z"/>
<path d="M3873 2481 c-108 -27 -152 -129 -100 -231 28 -58 83 -90 152 -90 65
0 106 25 134 82 67 139 -40 275 -186 239z"/>
<path d="M1050 3960 c-19 -12 -19 -82 -1 -104 7 -9 26 -16 41 -16 23 0 30 5
35 30 10 45 -3 87 -28 94 -28 7 -29 7 -47 -4z"/>
<path d="M1429 3734 c-1 -5 -1 -17 0 -26 2 -14 -5 -18 -26 -18 -16 0 -37 -6
-48 -14 -16 -12 -17 -18 -6 -62 7 -27 22 -59 33 -71 22 -24 52 -30 63 -14 3 5
19 12 35 16 29 6 30 9 30 62 0 50 -3 58 -40 95 -22 23 -41 37 -41 32z"/>
<path d="M8070 2318 c1 -211 6 -382 12 -409 11 -46 12 -47 56 -53 63 -8 135
-7 150 3 11 7 14 63 15 272 1 281 -13 429 -40 429 -8 0 -12 4 -9 9 3 4 -12 16
-34 26 -22 10 -40 24 -40 32 0 7 -4 13 -10 13 -5 0 -10 9 -10 20 0 17 -7 20
-46 20 l-45 0 1 -362z"/>
<path d="M832 473 c-17 -16 -39 -33 -49 -39 -10 -7 -15 -14 -12 -18 3 -3 27
14 55 39 27 24 46 44 43 45 -3 0 -19 -12 -37 -27z"/>
</g>
</svg>
